<svg width="22" height="22" viewBox="0 0 22 22" fill="none" xmlns="http://www.w3.org/2000/svg">
<path id="Vector" d="M11.0047 5.84438C8.02344 5.84438 5.61876 8.24907 5.61876 11.2303C5.61876 14.2116 8.02344 16.6163 11.0047 16.6163C13.9859 16.6163 16.3906 14.2116 16.3906 11.2303C16.3906 8.24907 13.9859 5.84438 11.0047 5.84438ZM11.0047 14.7319C9.07813 14.7319 7.50313 13.1616 7.50313 11.2303C7.50313 9.29907 9.07344 7.72876 11.0047 7.72876C12.9359 7.72876 14.5063 9.29907 14.5063 11.2303C14.5063 13.1616 12.9313 14.7319 11.0047 14.7319ZM17.8672 5.62407C17.8672 6.32251 17.3047 6.88032 16.6109 6.88032C15.9125 6.88032 15.3547 6.31782 15.3547 5.62407C15.3547 4.93032 15.9172 4.36782 16.6109 4.36782C17.3047 4.36782 17.8672 4.93032 17.8672 5.62407ZM21.4344 6.89907C21.3547 5.21626 20.9703 3.72563 19.7375 2.49751C18.5094 1.26938 17.0188 0.88501 15.3359 0.800635C13.6016 0.702197 8.40313 0.702197 6.66876 0.800635C4.99063 0.880322 3.50001 1.2647 2.26719 2.49282C1.03438 3.72095 0.654694 5.21157 0.570319 6.89438C0.471881 8.62876 0.471881 13.8272 0.570319 15.5616C0.650006 17.2444 1.03438 18.735 2.26719 19.9631C3.50001 21.1913 4.98594 21.5756 6.66876 21.66C8.40313 21.7584 13.6016 21.7584 15.3359 21.66C17.0188 21.5803 18.5094 21.1959 19.7375 19.9631C20.9656 18.735 21.35 17.2444 21.4344 15.5616C21.5328 13.8272 21.5328 8.63345 21.4344 6.89907ZM19.1938 17.4225C18.8281 18.3413 18.1203 19.0491 17.1969 19.4194C15.8141 19.9678 12.5328 19.8413 11.0047 19.8413C9.47657 19.8413 6.19063 19.9631 4.81251 19.4194C3.89376 19.0538 3.18594 18.3459 2.81563 17.4225C2.26719 16.0397 2.39376 12.7584 2.39376 11.2303C2.39376 9.7022 2.27188 6.41626 2.81563 5.03813C3.18126 4.11938 3.88907 3.41157 4.81251 3.04126C6.19532 2.49282 9.47657 2.61938 11.0047 2.61938C12.5328 2.61938 15.8188 2.49751 17.1969 3.04126C18.1156 3.40688 18.8234 4.1147 19.1938 5.03813C19.7422 6.42095 19.6156 9.7022 19.6156 11.2303C19.6156 12.7584 19.7422 16.0444 19.1938 17.4225Z" fill="#FCFCFC"/>
</svg>
