<svg width="289" height="288" viewBox="0 0 289 288" fill="none" xmlns="http://www.w3.org/2000/svg">
<g clip-path="url(#clip0_1_11)">
<path d="M233.548 105.792H231.495L239.435 95.5475H243.923L251.985 105.792H250.197L241.74 98.7495L233.548 105.792Z" fill="white"/>
<path d="M284.872 145.959C282.542 140.392 279.156 135.33 274.901 131.051C270.616 126.786 265.56 123.374 260.001 120.996C254.241 118.502 248.025 117.233 241.747 117.27C235.499 117.225 229.311 118.495 223.585 120.996C218.045 123.401 213.018 126.845 208.776 131.142C204.535 135.455 201.124 140.51 198.714 146.057C196.213 151.784 194.943 157.971 194.987 164.22C194.949 170.497 196.218 176.714 198.714 182.474C203.487 193.716 212.436 202.667 223.676 207.444C229.438 209.933 235.653 211.2 241.93 211.163C248.177 211.206 254.365 209.939 260.092 207.444C265.631 205.034 270.657 201.587 274.901 197.29C279.13 192.99 282.512 187.933 284.872 182.383C287.31 176.64 288.545 170.458 288.5 164.22C288.539 157.95 287.305 151.737 284.872 145.959ZM274.901 182.375C273.591 187.034 271.514 191.442 268.755 195.419C266.085 199.271 262.623 202.51 258.602 204.918C254.274 207.413 249.343 208.669 244.349 208.546C238.601 208.642 232.946 207.093 228.049 204.082C223.314 201.146 219.225 197.277 216.032 192.711C212.739 187.986 210.225 182.763 208.586 177.241C206.9 171.874 206.02 166.286 205.977 160.66C205.98 155.771 206.669 150.907 208.023 146.209C209.333 141.553 211.41 137.147 214.169 133.173C216.859 129.308 220.357 126.075 224.421 123.696C228.716 121.22 233.604 119.963 238.561 120.061C244.297 119.967 249.944 121.485 254.86 124.442C259.621 127.34 263.717 131.213 266.877 135.805C270.143 140.544 272.657 145.76 274.33 151.267C276.027 156.663 276.907 162.283 276.939 167.939C276.939 172.823 276.253 177.682 274.901 182.375Z" fill="white"/>
<path d="M149.345 204.918C148.063 201.945 147.428 198.733 147.481 195.495V115.946L134.232 129.188C134.943 130 135.488 130.943 135.837 131.964C136.268 133.193 136.549 134.47 136.674 135.767C136.795 137.067 136.864 138.216 136.864 139.212V195.495C136.922 198.721 136.33 201.926 135.122 204.918C133.941 207.712 131.55 209.667 127.95 210.782H156.418C152.94 209.667 150.582 207.712 149.345 204.918Z" fill="white"/>
<path d="M67.7502 195.7C64.5241 198.936 60.8263 201.665 56.7827 203.793C53.1776 205.603 48.7662 206.505 43.5486 206.5C38.5404 206.604 33.636 205.065 29.5845 202.119C25.6059 199.205 22.2754 195.496 19.8034 191.228C17.2093 186.754 15.2945 181.92 14.1219 176.884C12.9394 172.127 12.314 167.25 12.2585 162.349C12.2938 157.445 12.9428 152.565 14.1904 147.822C15.4338 142.879 17.446 138.161 20.1533 133.842C22.7457 129.709 26.1322 126.131 30.1169 123.316C31.8079 122.126 33.656 121.176 35.6082 120.494C38.3398 119.561 41.2099 119.099 44.0963 119.125C46.9697 119.136 49.8218 119.62 52.5387 120.555C53.1091 120.745 53.6719 120.951 54.2424 121.179C57.6049 122.516 60.7205 124.405 63.4605 126.769C66.1623 129.087 68.4356 131.863 70.1764 134.968C71.8944 138.039 72.783 141.504 72.7548 145.023V190.802L83.1899 180.367V76.8448L69.0508 90.9992C69.2181 91.1128 69.3759 91.24 69.5223 91.3795C70.4796 92.2825 71.2116 93.3974 71.6596 94.6347C72.1602 95.9512 72.4751 97.3309 72.5951 98.7342C72.7168 100.164 72.7776 101.432 72.7776 102.537V128.442C70.5466 126.576 68.4373 124.931 66.4496 123.506C64.526 122.118 62.464 120.933 60.2966 119.97C58.1191 119.019 55.8367 118.329 53.497 117.916L52.9114 117.817C50.4177 117.432 47.8972 117.246 45.374 117.262C41.4706 117.234 37.5799 117.709 33.7981 118.677C31.3454 119.308 28.9609 120.179 26.6791 121.278C21.28 123.845 16.4612 127.486 12.5171 131.979C8.53403 136.562 5.48525 141.879 3.54231 147.632C1.48577 153.69 0.457474 160.05 0.500001 166.448C0.487246 172.093 1.43104 177.699 3.29132 183.029C5.06914 188.211 7.75247 193.037 11.2165 197.282C14.6098 201.425 18.8262 204.817 23.5987 207.246C28.6835 209.787 34.3056 211.065 39.9891 210.973C45.5451 210.98 51.0065 209.536 55.832 206.782C60.6509 204.118 64.7431 200.313 67.7502 195.7Z" fill="white"/>
<path d="M141.42 90.7006L133.875 98.2461L141.42 105.792L148.966 98.2461L141.42 90.7006Z" fill="white"/>
</g>
<defs>
<clipPath id="clip0_1_11">
<rect width="288" height="288" fill="white" transform="translate(0.5)"/>
</clipPath>
</defs>
</svg>
