<svg xmlns="http://www.w3.org/2000/svg" id="Camada_1" data-name="Camada 1" viewBox="0 0 378.66 176.59" fill="#fff" color="#fff">
<polygon points="306.41 38.06 303.71 38.06 314.15 24.59 320.05 24.59 330.65 38.06 328.3 38.06 317.18 28.8 306.41 38.06" fill="#fff" color="#fff">
</polygon><path  fill="#fff" color="#fff" d="M373.89,90.87a61.42,61.42,0,0,0-13.11-19.6,62.73,62.73,0,0,0-19.59-13.22,59.51,59.51,0,0,0-24-4.9,58.62,58.62,0,0,0-23.88,4.9,62.09,62.09,0,0,0-19.47,13.34A64.8,64.8,0,0,0,260.61,91a58.62,58.62,0,0,0-4.9,23.88,59.46,59.46,0,0,0,4.9,24,62,62,0,0,0,32.82,32.83,59.62,59.62,0,0,0,24,4.89,58.77,58.77,0,0,0,23.88-4.89,62.29,62.29,0,0,0,19.47-13.35,63.24,63.24,0,0,0,13.11-19.6,60,60,0,0,0,4.77-23.88A60.91,60.91,0,0,0,373.89,90.87Zm-13.11,47.88a57.3,57.3,0,0,1-8.08,17.15,43.35,43.35,0,0,1-13.35,12.49,35.77,35.77,0,0,1-18.74,4.77,39.66,39.66,0,0,1-21.43-5.87,54,54,0,0,1-15.8-14.95A70.85,70.85,0,0,1,273.59,132a74.61,74.61,0,0,1-3.43-21.8,68.7,68.7,0,0,1,2.69-19,57.24,57.24,0,0,1,8.08-17.14A42.69,42.69,0,0,1,294.41,61.6,35.81,35.81,0,0,1,313,56.82a40.29,40.29,0,0,1,21.43,5.76,52,52,0,0,1,15.8,14.94,73.44,73.44,0,0,1,9.8,20.33,74.5,74.5,0,0,1,3.43,21.92A68.59,68.59,0,0,1,360.78,138.75Z"></path><path d="M195.7,168.39A30.05,30.05,0,0,1,193.25,156V51.41h0L175.83,68.82a10.88,10.88,0,0,1,2.11,3.65,21.24,21.24,0,0,1,1.1,5c.16,1.71.25,3.22.25,4.53v74A31.57,31.57,0,0,1,177,168.39q-2.33,5.51-9.43,7.71H205Q198.14,173.9,195.7,168.39Z"></path><path fill="#fff" color="#fff" d="M88.42,156.27A59.47,59.47,0,0,1,74,166.91q-7.11,3.57-17.4,3.56a30.16,30.16,0,0,1-18.36-5.76,46.88,46.88,0,0,1-12.86-14.32,68.61,68.61,0,0,1-7.47-18.86,83.1,83.1,0,0,1-2.45-19.11A77.27,77.27,0,0,1,18,93.32a64,64,0,0,1,7.84-18.38A48.5,48.5,0,0,1,38.94,61.1a29.38,29.38,0,0,1,7.22-3.71,33.57,33.57,0,0,1,11.16-1.8,34.5,34.5,0,0,1,11.1,1.88c.75.25,1.49.52,2.24.82a42.73,42.73,0,0,1,12.12,7.35,39.94,39.94,0,0,1,8.83,10.78A26.64,26.64,0,0,1,95,89.64v60.19l13.72-13.72V0l0,0L90.13,18.61a4.85,4.85,0,0,1,.62.5,11.06,11.06,0,0,1,2.81,4.28,19.94,19.94,0,0,1,1.23,5.39q.24,2.82.24,5V67.84q-4.4-3.68-8.32-6.49a45.23,45.23,0,0,0-8.09-4.65A39.53,39.53,0,0,0,69.68,54l-.77-.13A62.31,62.31,0,0,0,59,53.14,59.7,59.7,0,0,0,43.78,55a50.69,50.69,0,0,0-9.36,3.42A57.81,57.81,0,0,0,15.8,72.49,61.25,61.25,0,0,0,4,93.07a75.41,75.41,0,0,0-4,24.74,65.7,65.7,0,0,0,3.67,21.8,60.89,60.89,0,0,0,10.42,18.74,50.86,50.86,0,0,0,16.28,13.1,46.52,46.52,0,0,0,21.55,4.9,41.91,41.91,0,0,0,20.83-5.51A44.28,44.28,0,0,0,88.42,156.27Z"></path><rect fill="#fff" color="#fff" x="178.27" y="21.12" width="14.03" height="14.03" transform="translate(34.37 139.26) rotate(-45)"></rect></svg>
