<svg width="22" height="22" viewBox="0 0 22 22" fill="none" xmlns="http://www.w3.org/2000/svg">
<path id="Vector" d="M21.5 2.98502V19.485C21.5 20.7272 20.4922 21.735 19.25 21.735H7.7375C8.19687 20.9663 8.7875 19.86 9.02188 18.9553C9.1625 18.4163 9.73906 16.2178 9.73906 16.2178C10.1141 16.935 11.2109 17.5397 12.3781 17.5397C15.8516 17.5397 18.35 14.3475 18.35 10.3819C18.35 6.58033 15.2469 3.73502 11.2531 3.73502C6.28437 3.73502 3.65 7.06783 3.65 10.7006C3.65 12.3881 4.55 14.4881 5.98438 15.1585C6.20469 15.2616 6.31719 15.2147 6.36875 15.0038C6.40625 14.8444 6.60313 14.0616 6.6875 13.7006C6.71563 13.5835 6.70156 13.485 6.60781 13.3725C6.13438 12.796 5.75 11.7366 5.75 10.7475C5.75 8.20689 7.67187 5.75064 10.9484 5.75064C13.775 5.75064 15.7578 7.6772 15.7578 10.4335C15.7578 13.546 14.1875 15.7022 12.1391 15.7022C11.0094 15.7022 10.1656 14.7694 10.4328 13.621C10.7562 12.2522 11.3844 10.7756 11.3844 9.78658C11.3844 7.3022 7.84531 7.64439 7.84531 10.9585C7.84531 11.9756 8.1875 12.6694 8.1875 12.6694C6.71563 18.8944 6.49531 18.9741 6.8 21.6975L6.90313 21.735H2.75C1.50781 21.735 0.5 20.7272 0.5 19.485V2.98502C0.5 1.74283 1.50781 0.735016 2.75 0.735016H19.25C20.4922 0.735016 21.5 1.74283 21.5 2.98502Z" fill="#FCFCFC"/>
</svg>
