<svg width="17" height="16" viewBox="0 0 17 16" fill="none" xmlns="http://www.w3.org/2000/svg">
<path id="Vector" d="M12.1898 10.1427H11.4715L11.1979 9.86914C12.0986 8.87737 12.6344 7.53221 12.6344 6.09585C12.6344 2.85835 10.0235 0.247833 6.78551 0.247833C3.54751 0.247833 0.936584 2.85835 0.936584 6.09585C0.936584 9.33335 3.54751 11.9439 6.78551 11.9439C8.22208 11.9439 9.56745 11.4081 10.5594 10.5075L10.833 10.7811V11.4993L15.3252 15.9907L16.6705 14.6456L12.1898 10.1427ZM6.7969 10.1427C4.55083 10.1427 2.7494 8.34159 2.7494 6.09585C2.7494 3.85012 4.55083 2.04898 6.7969 2.04898C9.04298 2.04898 10.8444 3.85012 10.8444 6.09585C10.833 8.35298 9.04298 10.1427 6.7969 10.1427Z" fill="#FCFCFC"/>
</svg>
